<?xml version="1.0" encoding="UTF-8"?>
<svg xmlns="http://www.w3.org/2000/svg" xmlns:xlink="http://www.w3.org/1999/xlink" viewBox="0 0 240 240" width="240px" height="240px">
<g id="surface3860565">
<path style=" stroke:none;fill-rule:evenodd;fill:rgb(100%,56.862748%,72.549021%);fill-opacity:1;" d="M 120.210938 20.160156 C 175.324219 20.160156 220 64.835938 220 119.949219 C 220 175.058594 175.324219 219.738281 120.210938 219.738281 C 65.101562 219.738281 20.421875 175.066406 20.421875 119.949219 C 20.425781 64.835938 65.101562 20.160156 120.210938 20.160156 Z M 120.210938 20.160156 "/>
<path style=" stroke:none;fill-rule:nonzero;fill:rgb(100%,100%,100%);fill-opacity:1;" d="M 182.804688 62.871094 C 178.285156 45.144531 148.898438 39.320312 121.089844 49.199219 C 104.539062 55.078125 86.621094 64.308594 73.734375 76.359375 C 58.414062 90.691406 55.976562 103.160156 56.980469 108.371094 C 60.53125 126.753906 85.726562 138.773438 96.078125 147.695312 L 96.078125 147.75 C 93.023438 149.253906 70.675781 160.566406 65.445312 172.128906 C 59.925781 184.328125 66.324219 193.085938 70.558594 194.265625 C 83.683594 197.914062 97.148438 191.351562 104.390625 180.554688 C 111.375 170.136719 110.796875 156.683594 107.761719 149.988281 C 111.945312 148.886719 116.828125 148.390625 123.03125 149.113281 C 140.535156 151.160156 143.96875 162.089844 143.308594 166.664062 C 142.65625 171.238281 138.980469 173.753906 137.753906 174.515625 C 136.523438 175.273438 136.15625 175.539062 136.253906 176.101562 C 136.40625 176.921875 136.96875 176.890625 138.019531 176.714844 C 139.460938 176.46875 147.210938 172.996094 147.546875 164.550781 C 147.964844 153.828125 137.695312 141.839844 119.503906 142.148438 C 112.015625 142.28125 107.304688 142.988281 103.898438 144.261719 C 103.648438 143.976562 103.390625 143.691406 103.128906 143.40625 C 91.886719 131.40625 71.09375 122.921875 71.976562 106.789062 C 72.296875 100.925781 74.335938 85.484375 111.921875 66.753906 C 142.710938 51.410156 167.359375 55.636719 171.621094 64.988281 C 177.703125 78.359375 158.445312 103.203125 126.46875 106.789062 C 114.285156 108.15625 107.871094 103.433594 106.273438 101.675781 C 104.59375 99.824219 104.34375 99.738281 103.71875 100.089844 C 102.699219 100.65625 103.34375 102.289062 103.71875 103.265625 C 104.675781 105.75 108.59375 110.15625 115.269531 112.351562 C 121.144531 114.28125 135.449219 115.335938 152.75 108.644531 C 172.121094 101.144531 187.25 80.296875 182.804688 62.871094 Z M 100.378906 153.191406 C 101.828125 158.558594 101.671875 163.570312 100.175781 168.105469 C 100.011719 168.609375 99.824219 169.105469 99.625 169.601562 C 99.425781 170.089844 99.210938 170.578125 98.980469 171.058594 C 97.824219 173.460938 96.269531 175.703125 94.371094 177.78125 C 88.570312 184.105469 80.46875 186.496094 77 184.480469 C 73.25 182.304688 75.128906 173.390625 81.851562 166.28125 C 89.078125 158.636719 99.484375 153.71875 99.484375 153.71875 L 99.46875 153.691406 C 99.769531 153.523438 100.074219 153.359375 100.378906 153.191406 Z M 100.378906 153.191406 "/>
</g>
</svg>
