<?xml version="1.0" encoding="UTF-8"?>
<svg xmlns="http://www.w3.org/2000/svg" xmlns:xlink="http://www.w3.org/1999/xlink" viewBox="0 0 240 240" width="240px" height="240px">
<g id="surface3934504">
<path style=" stroke:none;fill-rule:nonzero;fill:rgb(90.196079%,49.411765%,13.333334%);fill-opacity:1;" d="M 211 110.5 L 129.5 29 C 127 26.5 123.5 25 120 25 C 116.5 25 113 26.5 110.5 29 L 93 46.5 L 113.5 67 C 115.5 66 117.5 65.5 120 65.5 C 128.5 65.5 135 72 135 80.5 C 135 83 134.5 85 133.5 87 L 153.5 107 C 155.5 106 157.5 105.5 160 105.5 C 168.5 105.5 175 112 175 120.5 C 175 129 168.5 135.5 160 135.5 C 151.5 135.5 145 129 145 120.5 C 145 118 145.5 116 146.5 114 L 126.5 94 C 126 94 125.5 94.5 125 94.5 L 125 146.5 C 131 148.5 135 154 135 160.5 C 135 169 128.5 175.5 120 175.5 C 111.5 175.5 105 169 105 160.5 C 105 154 109 148.5 115 146.5 L 115 94 C 109 92 105 86.5 105 80 C 105 77.5 105.5 75.5 106.5 73.5 L 86 53 L 29 110.5 C 26.5 113 25 116.5 25 120 C 25 123.5 26.5 127 29 129.5 L 110.5 211 C 113 213.5 116.5 215 120 215 C 123.5 215 127 213.5 129.5 211 L 211 129.5 C 213.5 127 215 123.5 215 120 C 215 116.5 213.5 113 211 110.5 Z M 211 110.5 "/>
</g>
</svg>
